<svg width="22" height="14" viewBox="0 0 22 14" fill="none" xmlns="http://www.w3.org/2000/svg">
<path fill-rule="evenodd" clip-rule="evenodd" d="M0.500002 7.00003C0.500002 6.80112 0.57902 6.61035 0.719671 6.4697C0.860325 6.32905 1.05109 6.25003 1.25 6.25003L18.9395 6.25003L14.219 1.53103C14.0782 1.3902 13.9991 1.19919 13.9991 1.00003C13.9991 0.800866 14.0782 0.609859 14.219 0.469029C14.3598 0.328199 14.5508 0.249083 14.75 0.249083C14.9492 0.249083 15.1402 0.328199 15.281 0.469029L21.281 6.46903C21.3508 6.5387 21.4063 6.62146 21.4441 6.71258C21.4819 6.8037 21.5013 6.90138 21.5013 7.00003C21.5013 7.09868 21.4819 7.19636 21.4441 7.28748C21.4063 7.3786 21.3508 7.46136 21.281 7.53103L15.281 13.531C15.2113 13.6008 15.1285 13.6561 15.0374 13.6938C14.9463 13.7316 14.8486 13.751 14.75 13.751C14.5508 13.751 14.3598 13.6719 14.219 13.531C14.0782 13.3902 13.9991 13.1992 13.9991 13C13.9991 12.8009 14.0782 12.6099 14.219 12.469L18.9395 7.75003L1.25 7.75003C1.05109 7.75003 0.860325 7.67101 0.719671 7.53036C0.57902 7.38971 0.500002 7.19894 0.500002 7.00003Z" fill="#FCFCFD"/>
</svg>
