<svg width="17" height="17" viewBox="0 0 17 17" fill="none" xmlns="http://www.w3.org/2000/svg">
<path d="M8.02749 11.5871C7.98883 11.5495 7.82349 11.4072 7.68749 11.2748C6.83216 10.498 5.43216 8.47171 5.00483 7.41115C4.93616 7.25008 4.79083 6.84287 4.78149 6.6253C4.78149 6.41683 4.82949 6.2181 4.92683 6.02845C5.06283 5.79205 5.27683 5.60241 5.52949 5.4985C5.70483 5.4316 6.22949 5.32769 6.23883 5.32769C6.81283 5.22378 7.74549 5.16663 8.77616 5.16663C9.75816 5.16663 10.6528 5.22378 11.2355 5.30886C11.2448 5.3186 11.8968 5.42251 12.1202 5.53617C12.5282 5.74464 12.7815 6.15185 12.7815 6.58764V6.6253C12.7715 6.90912 12.5182 7.50597 12.5088 7.50597C12.0808 8.50938 10.7495 10.4889 9.86483 11.2845C9.86483 11.2845 9.63749 11.5086 9.49549 11.606C9.29149 11.758 9.03883 11.8333 8.78616 11.8333C8.50416 11.8333 8.24149 11.7482 8.02749 11.5871Z" fill="#667085"/>
</svg>
