<svg width="28" height="28" viewBox="0 0 28 28" fill="none" xmlns="http://www.w3.org/2000/svg">
<path fill-rule="evenodd" clip-rule="evenodd" d="M0.666687 2.89457C0.666687 2.3037 0.90141 1.73703 1.31922 1.31922C1.73703 0.901412 2.3037 0.66669 2.89457 0.66669H25.103C25.3959 0.666212 25.6859 0.723494 25.9566 0.835256C26.2272 0.947018 26.4732 1.11107 26.6803 1.31801C26.8875 1.52495 27.0518 1.77072 27.1639 2.04125C27.2759 2.31178 27.3335 2.60175 27.3334 2.89457V25.1031C27.3337 25.3959 27.2762 25.686 27.1643 25.9566C27.0525 26.2273 26.8883 26.4732 26.6813 26.6804C26.4742 26.8875 26.2284 27.0518 25.9578 27.1639C25.6872 27.2759 25.3971 27.3335 25.1043 27.3334H2.89457C2.60189 27.3334 2.31209 27.2757 2.04171 27.1637C1.77134 27.0516 1.52568 26.8874 1.31879 26.6804C1.1119 26.4734 0.947817 26.2276 0.835927 25.9572C0.724036 25.6868 0.666528 25.3969 0.666687 25.1043V2.89457ZM11.2218 10.834H14.8327V12.6473C15.354 11.6049 16.6873 10.6667 18.6909 10.6667C22.5321 10.6667 23.4424 12.7431 23.4424 16.5527V23.6097H19.5552V17.4206C19.5552 15.2509 19.034 14.0267 17.7103 14.0267C15.874 14.0267 15.1103 15.3467 15.1103 17.4206V23.6097H11.2218V10.834ZM4.55517 23.4437H8.44366V10.6667H4.55517V23.4424V23.4437ZM9.00002 6.49942C9.00735 6.83235 8.94811 7.1634 8.82576 7.47313C8.70342 7.78286 8.52045 8.06504 8.28757 8.30309C8.0547 8.54115 7.77662 8.73029 7.46966 8.85942C7.1627 8.98856 6.83304 9.05507 6.50002 9.05507C6.167 9.05507 5.83734 8.98856 5.53038 8.85942C5.22342 8.73029 4.94534 8.54115 4.71247 8.30309C4.47959 8.06504 4.29662 7.78286 4.17428 7.47313C4.05193 7.1634 3.99269 6.83235 4.00002 6.49942C4.01441 5.84591 4.28412 5.22401 4.7514 4.76692C5.21867 4.30982 5.84635 4.05386 6.50002 4.05386C7.15369 4.05386 7.78137 4.30982 8.24864 4.76692C8.71592 5.22401 8.98563 5.84591 9.00002 6.49942Z" fill="#FCFCFD"/>
</svg>
