<svg width="28" height="28" viewBox="0 0 28 28" fill="none" xmlns="http://www.w3.org/2000/svg">
<path d="M13.9967 9.55362C11.5484 9.55362 9.55035 11.5516 9.55035 14C9.55035 16.4483 11.5484 18.4463 13.9967 18.4463C16.445 18.4463 18.443 16.4483 18.443 14C18.443 11.5516 16.445 9.55362 13.9967 9.55362ZM27.3324 14C27.3324 12.1587 27.349 10.3341 27.2456 8.49624C27.1422 6.36146 26.6552 4.46685 25.0942 2.9058C23.5298 1.34141 21.6385 0.857747 19.5037 0.754343C17.6625 0.65094 15.8379 0.667618 14 0.667618C12.1588 0.667618 10.3342 0.65094 8.4963 0.754343C6.36153 0.857747 4.46691 1.34474 2.90586 2.9058C1.34147 4.47019 0.857808 6.36146 0.754404 8.49624C0.651001 10.3375 0.667679 12.1621 0.667679 14C0.667679 15.8379 0.651001 17.6658 0.754404 19.5037C0.857808 21.6385 1.3448 23.5331 2.90586 25.0941C4.47025 26.6585 6.36153 27.1422 8.4963 27.2456C10.3375 27.349 12.1621 27.3323 14 27.3323C15.8413 27.3323 17.6658 27.349 19.5037 27.2456C21.6385 27.1422 23.5331 26.6552 25.0942 25.0941C26.6586 23.5297 27.1422 21.6385 27.2456 19.5037C27.3524 17.6658 27.3324 15.8412 27.3324 14ZM13.9967 20.8412C10.2108 20.8412 7.1554 17.7859 7.1554 14C7.1554 10.2141 10.2108 7.15867 13.9967 7.15867C17.7826 7.15867 20.838 10.2141 20.838 14C20.838 17.7859 17.7826 20.8412 13.9967 20.8412ZM21.1182 8.47623C20.2342 8.47623 19.5204 7.76241 19.5204 6.87848C19.5204 5.99455 20.2342 5.28074 21.1182 5.28074C22.0021 5.28074 22.7159 5.99455 22.7159 6.87848C22.7162 7.08837 22.675 7.29626 22.5948 7.49022C22.5146 7.68419 22.3969 7.86043 22.2485 8.00885C22.1001 8.15726 21.9239 8.27494 21.7299 8.35514C21.5359 8.43534 21.3281 8.47649 21.1182 8.47623Z" fill="#FCFCFD"/>
</svg>
