<svg width="24" height="24" viewBox="0 0 24 24" fill="none" xmlns="http://www.w3.org/2000/svg">
<path d="M12.9898 1.1719L15.8356 6.93742C15.9148 7.09785 16.0318 7.23662 16.1765 7.34177C16.3213 7.44692 16.4894 7.5153 16.6665 7.54101L23.029 8.4657C23.2328 8.49529 23.4242 8.58134 23.5817 8.71409C23.7391 8.84684 23.8563 9.02101 23.9199 9.21688C23.9835 9.41276 23.991 9.62252 23.9416 9.82245C23.8922 10.0224 23.7878 10.2045 23.6403 10.3482L19.0356 14.8359C18.7752 15.0897 18.6571 15.4549 18.7178 15.8125L19.8047 22.1496C19.8395 22.3525 19.8168 22.5611 19.7392 22.7518C19.6616 22.9425 19.5322 23.1077 19.3656 23.2287C19.199 23.3497 19.0019 23.4217 18.7966 23.4365C18.5912 23.4513 18.3858 23.4084 18.2036 23.3126L12.512 20.32C12.3535 20.2369 12.1773 20.1935 11.9984 20.1935C11.8194 20.1935 11.6431 20.2369 11.4847 20.32L5.79311 23.3126C5.61088 23.4084 5.40548 23.4513 5.20013 23.4365C4.99478 23.4217 4.79767 23.3497 4.6311 23.2287C4.46452 23.1077 4.33512 22.9425 4.25753 22.7518C4.17993 22.5611 4.15724 22.3525 4.19201 22.1496L5.2789 15.8125C5.30916 15.6361 5.29604 15.4551 5.24067 15.2849C5.1853 15.1148 5.08935 14.9607 4.96111 14.8359L0.356419 10.3482C0.208884 10.2045 0.104506 10.0224 0.0550918 9.82245C0.00567766 9.62252 0.0131999 9.41276 0.0768077 9.21688C0.140416 9.02101 0.25757 8.84684 0.415018 8.71409C0.572466 8.58134 0.763923 8.49529 0.967729 8.4657L7.33021 7.54101C7.50726 7.5153 7.67541 7.44692 7.82016 7.34177C7.96491 7.23662 8.08192 7.09785 8.16111 6.93742L11.0069 1.1719C11.4152 0.352041 12.5848 0.352041 12.9898 1.1719Z" fill="#FDB022"/>
</svg>
