<svg width="28" height="28" viewBox="0 0 28 28" fill="none" xmlns="http://www.w3.org/2000/svg">
<path d="M14 0.666687C6.63693 0.666687 0.666687 6.63693 0.666687 14C0.666687 21.3631 6.63693 27.3334 14 27.3334C21.3631 27.3334 27.3334 21.3631 27.3334 14C27.3334 6.63693 21.3631 0.666687 14 0.666687ZM20.4078 10.7173C20.4167 10.8572 20.4167 11.003 20.4167 11.1459C20.4167 15.5149 17.0893 20.5476 11.0089 20.5476C9.13395 20.5476 7.39585 20.003 5.93157 19.0655C6.19942 19.0953 6.45538 19.1072 6.72919 19.1072C8.27681 19.1072 9.69943 18.5834 10.8334 17.6964C9.38097 17.6667 8.16073 16.7143 7.74407 15.4048C8.253 15.4792 8.71133 15.4792 9.23514 15.3453C8.4873 15.1933 7.81512 14.7872 7.33281 14.1958C6.85049 13.6044 6.58778 12.8643 6.58931 12.1012V12.0595C7.02681 12.3066 7.54169 12.4584 8.08038 12.4792C7.62753 12.1774 7.25615 11.7685 6.99916 11.2888C6.74218 10.8091 6.60753 10.2734 6.60716 9.72919C6.60716 9.11312 6.76788 8.55062 7.05657 8.06252C7.88664 9.08436 8.92243 9.92009 10.0966 10.5154C11.2708 11.1107 12.5572 11.4523 13.872 11.5179C13.4048 9.27085 15.0834 7.4524 17.1012 7.4524C18.0536 7.4524 18.9107 7.85121 19.5149 8.49407C20.2619 8.35419 20.9762 8.07442 21.6131 7.69942C21.3661 8.46431 20.8482 9.11014 20.1607 9.51788C20.8274 9.44645 21.4703 9.26193 22.0655 9.003C21.6161 9.66371 21.0536 10.25 20.4078 10.7173Z" fill="#FCFCFD"/>
</svg>
